<svg width="139" height="45" viewBox="0 0 139 45" fill="none" xmlns="http://www.w3.org/2000/svg">
<path d="M1.98438 34.1641C1.54688 34.1641 1.16406 34 0.835938 33.6719C0.507812 33.3438 0.34375 32.9609 0.34375 32.5234V23.4766C0.34375 21.6172 0.703125 19.8828 1.42188 18.2734C2.14062 16.6484 3.13281 15.2188 4.39844 13.9844C5.66406 12.7344 7.10938 11.7656 8.73438 11.0781C10.3594 10.375 12.0703 10.0234 13.8672 10.0234C16.7266 10.0234 19.25 10.6406 21.4375 11.875C23.625 13.1094 25.3359 14.8047 26.5703 16.9609C27.8047 19.1172 28.4141 21.5859 28.3984 24.3672V32.5234C28.3984 32.9609 28.2344 33.3438 27.9062 33.6719C27.5781 34 27.1875 34.1641 26.7344 34.1641H1.98438ZM12.9531 13.3281C11.25 13.3281 9.6875 13.7969 8.26562 14.7344C6.85938 15.6562 5.73438 16.8906 4.89062 18.4375C4.04688 19.9844 3.625 21.6875 3.625 23.5469V30.8828C5.20312 30.8828 6.78906 30.5234 8.38281 29.8047C9.97656 29.0859 11.4375 28.1172 12.7656 26.8984C14.0938 25.6797 15.1562 24.3203 15.9531 22.8203C16.7656 21.3047 17.1719 19.7578 17.1719 18.1797C17.1719 16.7109 16.7891 15.5391 16.0234 14.6641C15.2578 13.7734 14.2344 13.3281 12.9531 13.3281ZM19.8203 14.7109C20.2891 15.8516 20.5234 17.0312 20.5234 18.25C20.5234 20.1094 20.125 21.8516 19.3281 23.4766C18.5312 25.0859 17.5469 26.5234 16.375 27.7891C15.2031 29.0547 14.0391 30.0859 12.8828 30.8828H25.0938V23.5234C25.1094 21.5859 24.5938 19.8516 23.5469 18.3203C22.5156 16.7734 21.2734 15.5703 19.8203 14.7109ZM41.5469 31.2109C43 31.2109 44.25 30.7734 45.2969 29.8984C46.3594 29.0234 47.1719 27.8984 47.7344 26.5234C48.3125 25.1484 48.6016 23.7188 48.6016 22.2344C48.6016 20.7031 48.3203 19.2578 47.7578 17.8984C47.2109 16.5391 46.4141 15.4297 45.3672 14.5703C44.3203 13.7109 43.0547 13.2812 41.5703 13.2812C40.7109 13.2812 39.9141 13.5312 39.1797 14.0312C38.4609 14.5156 37.8672 15.1406 37.3984 15.9062C36.9453 16.6719 36.6797 17.4688 36.6016 18.2969C36.5703 18.7031 36.3984 19.0547 36.0859 19.3516C35.7734 19.6484 35.3906 19.7969 34.9375 19.7969C34.5938 19.7969 34.2344 19.6562 33.8594 19.375C33.5 19.0781 33.3203 18.7734 33.3203 18.4609C33.3203 16.8672 33.7188 15.4375 34.5156 14.1719C35.3281 12.8906 36.3828 11.875 37.6797 11.125C38.9922 10.375 40.3906 10 41.875 10C43.9688 10 45.7578 10.5938 47.2422 11.7812C48.7422 12.9531 49.8906 14.4688 50.6875 16.3281C51.4844 18.1875 51.8828 20.1484 51.8828 22.2109C51.8828 24.3516 51.4453 26.3594 50.5703 28.2344C49.7109 30.0938 48.5078 31.6016 46.9609 32.7578C45.4141 33.9141 43.6172 34.4922 41.5703 34.4922C40.0391 34.4922 38.6328 34.1172 37.3516 33.3672C36.0703 32.6016 35.0391 31.5781 34.2578 30.2969C33.4922 29.0156 33.1094 27.5938 33.1094 26.0312C33.1094 25.7344 33.2812 25.4375 33.625 25.1406C33.9688 24.8438 34.2969 24.6953 34.6094 24.6953C35.1406 24.6953 35.5625 24.8438 35.875 25.1406C36.2031 25.4375 36.375 25.8047 36.3906 26.2422C36.4844 27.5703 37.0156 28.7344 37.9844 29.7344C38.9531 30.7188 40.1406 31.2109 41.5469 31.2109ZM89.6641 44.2188C88.5078 44.2188 87.4219 43.9141 86.4062 43.3047C85.4062 42.7109 84.6016 41.9219 83.9922 40.9375C83.3828 39.9531 83.0781 38.875 83.0781 37.7031C83.0781 36.4219 83.375 35.2734 83.9688 34.2578C84.5625 33.2422 85.3672 32.4375 86.3828 31.8438C87.4141 31.2344 88.5547 30.9297 89.8047 30.9297C91.0078 30.9297 92.1016 31.2344 93.0859 31.8438C94.0859 32.4531 94.8828 33.2578 95.4766 34.2578C96.0859 35.2734 96.3906 36.3828 96.3906 37.5859C96.3906 38.8047 96.0859 39.9141 95.4766 40.9141C94.8672 41.9297 94.0547 42.7344 93.0391 43.3281C92.0234 43.9219 90.8984 44.2188 89.6641 44.2188ZM93.6016 37.5859C93.6016 36.5234 93.2266 35.6094 92.4766 34.8438C91.7422 34.0938 90.8516 33.7188 89.8047 33.7188C88.7734 33.7188 87.8594 34.0938 87.0625 34.8438C86.2656 35.6094 85.8672 36.4922 85.8672 37.4922C85.8672 38.6484 86.2266 39.5938 86.9453 40.3281C87.6797 41.0625 88.6016 41.4297 89.7109 41.4297C90.7891 41.4297 91.7031 41.0547 92.4531 40.3047C93.2188 39.5703 93.6016 38.6641 93.6016 37.5859ZM83.6875 13.3281C83.375 13.3281 83.0781 13.1406 82.7969 12.7656C82.5156 12.3906 82.375 12.0312 82.375 11.6875C82.375 11.1875 82.5469 10.7891 82.8906 10.4922C83.25 10.1953 83.6719 10.0469 84.1562 10.0469C85.875 10.0469 87.4844 10.375 88.9844 11.0312C90.5 11.6875 91.8359 12.5938 92.9922 13.75C94.1484 14.8906 95.0469 16.2188 95.6875 17.7344C96.3438 19.2344 96.6719 20.8359 96.6719 22.5391C96.6719 24.7734 96.1641 26.7969 95.1484 28.6094C94.1484 30.4062 92.7812 31.8281 91.0469 32.875C89.3125 33.9219 87.3359 34.4453 85.1172 34.4453C83.1641 34.4453 81.4297 33.9766 79.9141 33.0391C78.3984 32.0859 77.2344 30.9453 76.4219 29.6172C75.5938 31.0078 74.4453 32.1719 72.9766 33.1094C71.5078 34.0469 69.7344 34.5156 67.6562 34.5156C65.5312 34.5156 63.6328 33.9844 61.9609 32.9219C60.2891 31.8594 58.9766 30.4453 58.0234 28.6797C57.0703 26.8984 56.5938 24.9375 56.5938 22.7969C56.5938 21.1562 56.8984 19.5781 57.5078 18.0625C58.1328 16.5312 58.9844 15.1719 60.0625 13.9844C61.1406 12.7812 62.3828 11.8281 63.7891 11.125C65.2109 10.4219 66.7188 10.0703 68.3125 10.0703C68.7656 10.0703 69.1562 10.2266 69.4844 10.5391C69.8125 10.8359 69.9766 11.2188 69.9766 11.6875C69.9766 12.125 69.8281 12.5 69.5312 12.8125C69.25 13.125 68.9062 13.2969 68.5 13.3281C66.9531 13.4844 65.5234 13.9844 64.2109 14.8281C62.9141 15.6719 61.8672 16.7734 61.0703 18.1328C60.2891 19.4922 59.8984 21.0312 59.8984 22.75C59.8984 24.3125 60.2266 25.7422 60.8828 27.0391C61.5391 28.3203 62.4609 29.3438 63.6484 30.1094C64.8359 30.8594 66.2188 31.2344 67.7969 31.2344C69.1406 31.2344 70.3359 30.9141 71.3828 30.2734C72.4297 29.6328 73.2578 28.7578 73.8672 27.6484C74.4766 26.5234 74.7812 25.2656 74.7812 23.875L74.8516 11.6641C74.8672 11.2578 75.0234 10.8906 75.3203 10.5625C75.6172 10.2188 75.9609 10.0469 76.3516 10.0469C76.8828 10.0469 77.3047 10.2109 77.6172 10.5391C77.9453 10.8516 78.1172 11.2344 78.1328 11.6875L78.0625 23.8984C78.0625 25.2422 78.3516 26.4766 78.9297 27.6016C79.5078 28.7109 80.3281 29.6016 81.3906 30.2734C82.4688 30.9297 83.7266 31.2578 85.1641 31.2578C86.8203 31.2578 88.2578 30.8438 89.4766 30.0156C90.6953 29.1875 91.6406 28.1016 92.3125 26.7578C92.9844 25.4141 93.3203 23.9766 93.3203 22.4453C93.3203 20.6797 92.8984 19.1172 92.0547 17.7578C91.2109 16.3828 90.0625 15.3047 88.6094 14.5234C87.1562 13.7266 85.5156 13.3281 83.6875 13.3281ZM109.773 32.8281C109.773 33.2344 109.633 33.6094 109.352 33.9531C109.086 34.2969 108.688 34.4688 108.156 34.4688C107.812 34.4688 107.523 34.3828 107.289 34.2109C105.711 33.2109 104.328 31.7969 103.141 29.9688C101.953 28.125 101.359 26 101.359 23.5938C101.359 20.8438 102.016 18.4453 103.328 16.3984C104.656 14.3516 106.43 12.7656 108.648 11.6406C110.867 10.5156 113.32 9.95312 116.008 9.95312C118.867 9.95312 121.398 10.5703 123.602 11.8047C125.82 13.0391 127.562 14.7031 128.828 16.7969C130.094 18.875 130.727 21.1953 130.727 23.7578C130.727 25.6641 130.289 27.4453 129.414 29.1016C128.539 30.7422 127.328 32.0703 125.781 33.0859C124.25 34.1016 122.484 34.6094 120.484 34.6094C118.672 34.6094 117.062 34.1719 115.656 33.2969C114.266 32.4062 113.172 31.25 112.375 29.8281C111.594 28.3906 111.203 26.8438 111.203 25.1875C111.203 23.625 111.609 22.1094 112.422 20.6406C113.234 19.1719 114.344 17.9688 115.75 17.0312C117.156 16.0781 118.75 15.6016 120.531 15.6016C121.641 15.6016 122.805 15.8281 124.023 16.2812C121.805 14.2812 119.188 13.2812 116.172 13.2812C114.094 13.2812 112.172 13.7109 110.406 14.5703C108.656 15.4141 107.25 16.6094 106.188 18.1562C105.141 19.6875 104.617 21.4922 104.617 23.5703C104.617 25.3516 105.055 26.9297 105.93 28.3047C106.82 29.6641 107.852 30.7109 109.023 31.4453C109.523 31.7422 109.773 32.2031 109.773 32.8281ZM120.719 31.3984C121.859 31.3984 122.906 31.1172 123.859 30.5547C124.812 29.9766 125.57 29.2188 126.133 28.2812C126.711 27.3281 127 26.2812 127 25.1406C127 24 126.711 22.9609 126.133 22.0234C125.57 21.0703 124.812 20.3125 123.859 19.75C122.906 19.1719 121.859 18.8828 120.719 18.8828C119.578 18.8828 118.531 19.1719 117.578 19.75C116.641 20.3125 115.891 21.0703 115.328 22.0234C114.766 22.9609 114.484 24 114.484 25.1406C114.484 26.2812 114.766 27.3281 115.328 28.2812C115.891 29.2188 116.641 29.9766 117.578 30.5547C118.531 31.1172 119.578 31.3984 120.719 31.3984ZM129.461 0.90625C131.695 0.90625 133.492 1.46094 134.852 2.57031C136.211 3.67969 137.195 5.15625 137.805 7C138.43 8.82812 138.742 10.8281 138.742 13V32.9219C138.742 33.3594 138.586 33.7422 138.273 34.0703C137.961 34.3984 137.578 34.5625 137.125 34.5625C136.688 34.5625 136.297 34.3984 135.953 34.0703C135.625 33.7422 135.461 33.3594 135.461 32.9219V13.0234C135.461 11.3828 135.281 9.89844 134.922 8.57031C134.562 7.24219 133.945 6.1875 133.07 5.40625C132.18 4.60938 130.945 4.21094 129.367 4.21094C128.039 4.21094 126.891 4.59375 125.922 5.35938C124.953 6.10938 124.281 6.99219 123.906 8.00781C123.688 8.74219 123.109 9.10938 122.172 9.10938C121.859 9.10938 121.555 8.94531 121.258 8.61719C120.945 8.28906 120.789 7.96875 120.789 7.65625C120.789 6.35938 121.242 5.20312 122.148 4.1875C123.039 3.17188 124.156 2.375 125.5 1.79688C126.828 1.20313 128.148 0.90625 129.461 0.90625Z" fill="white"/>
</svg>
